<svg xmlns="http://www.w3.org/2000/svg" width="1920.999" height="1162.596" viewBox="0 0 1920.999 1162.596"><path d="M-316.307,1170.913h-.152c-28.428,0-57.269-.753-85.723-2.238-29.16-1.521-58.773-3.854-88.017-6.936-29.921-3.154-60.285-7.181-90.247-11.967-30.648-4.9-61.742-10.726-92.419-17.328-31.349-6.748-63.152-14.494-94.526-23.023-32.029-8.708-64.521-18.481-96.572-29.048-32.7-10.78-65.854-22.692-98.556-35.4-33.345-12.964-67.151-27.126-100.48-42.095V8.317c62.553,34.393,131.932,66.72,206.212,96.08,43.91,17.356,90.06,33.864,137.167,49.065,25.287,8.16,51.351,16.105,77.47,23.614,27.293,7.847,55.4,15.435,83.532,22.553C-291.191,267.293,11.374,301.6,340.673,301.6c58.275,0,118.191-1.09,178.085-3.24,61.853-2.219,125.461-5.632,189.056-10.145,49.14-3.487,99.67-7.737,150.185-12.631V702.422c-15.5,14.458-32.193,29.291-49.608,44.086-32.224,27.376-66.721,54.476-102.532,80.548-44.762,32.59-91.717,63.656-139.561,92.337-121.781,73-249.976,131.176-381.025,172.9-37.879,12.06-76.507,22.885-114.811,32.177-19.929,4.834-40.163,9.349-60.141,13.418-20.508,4.179-41.34,8.012-61.918,11.393-21.066,3.462-42.483,6.552-63.657,9.184-21.649,2.69-43.639,4.974-65.361,6.789-22.193,1.855-44.745,3.272-67.029,4.211C-270.394,1170.424-293.5,1170.911-316.307,1170.913Z" transform="translate(1063 -8.317)" fill="rgba(157,157,157,0.06)" opacity="0.92"/></svg>